<?xml version="1.0" standalone="no"?>
<!DOCTYPE svg PUBLIC "-//W3C//DTD SVG 20010904//EN"
 "http://www.w3.org/TR/2001/REC-SVG-20010904/DTD/svg10.dtd">
<svg version="1.0" xmlns="http://www.w3.org/2000/svg"
 width="560.000000pt" height="560.000000pt" viewBox="0 0 560.000000 560.000000"
 preserveAspectRatio="xMidYMid meet">
<metadata>
Created by potrace 1.11, written by Peter Selinger 2001-2013
</metadata>
<g transform="translate(0.000000,560.000000) scale(0.100000,-0.100000)"
fill="#000000" stroke="none">
<path d="M1410 5590 c-41 -5 -118 -17 -170 -28 -578 -123 -974 -470 -1149
-1010 -70 -215 -91 -377 -86 -677 7 -388 99 -765 298 -1220 68 -156 69 -160
58 -205 -69 -281 -82 -387 -80 -685 1 -240 9 -321 45 -454 125 -476 442 -811
904 -959 179 -57 249 -66 535 -66 287 0 355 6 576 58 l147 34 153 -68 c449
-199 844 -295 1249 -305 528 -12 933 131 1246 440 304 300 449 669 459 1165 8
456 -85 857 -328 1404 l-44 99 19 71 c105 400 106 890 2 1206 -42 126 -129
292 -209 399 -164 217 -387 373 -659 460 -185 60 -219 64 -516 67 -306 4 -349
0 -586 -52 l-165 -37 -87 38 c-380 167 -625 246 -942 301 -121 21 -182 26
-370 29 -124 1 -259 -1 -300 -5z m590 -174 c58 -9 157 -28 220 -42 199 -44
646 -202 638 -226 -2 -5 -50 -29 -108 -54 -392 -168 -776 -411 -1115 -704
-115 -100 -411 -406 -526 -545 l-124 -150 -115 0 c-109 0 -119 -2 -180 -32
-83 -41 -162 -120 -203 -203 -29 -59 -32 -73 -32 -160 0 -83 4 -103 27 -153
15 -32 41 -76 58 -97 l30 -38 -54 -128 c-30 -71 -58 -130 -63 -131 -11 -4 -58
96 -104 222 -121 336 -179 624 -184 920 -5 309 37 523 154 770 71 150 125 226
248 350 125 125 178 167 288 228 187 103 377 159 650 190 75 9 399 -3 495 -17z
m2030 -262 c167 -26 265 -51 372 -95 384 -158 637 -474 734 -914 23 -105 29
-458 10 -595 -19 -132 -36 -210 -47 -210 -5 0 -9 4 -9 9 0 17 -260 400 -350
516 -371 476 -805 862 -1357 1209 -24 14 -43 30 -43 35 0 5 64 18 143 30 78
11 153 23 167 25 33 5 335 -2 380 -10z m-777 -205 c390 -235 671 -460 1012
-809 51 -52 103 -107 116 -121 13 -15 38 -42 54 -60 242 -270 595 -791 595
-879 0 -28 -61 -189 -124 -330 -77 -171 -282 -530 -339 -596 l-22 -24 -60 16
c-131 35 -272 -5 -373 -105 -131 -129 -161 -287 -87 -448 l25 -55 -73 -70
c-386 -374 -875 -689 -1336 -863 -108 -40 -128 -45 -150 -35 -46 21 -293 171
-391 239 -580 396 -1163 1023 -1485 1599 l-57 100 42 116 c23 63 61 152 84
197 l41 83 111 1 c104 1 115 3 176 33 80 39 163 125 205 209 25 51 28 69 28
153 0 81 -4 103 -26 150 -14 31 -41 73 -59 93 -31 36 -32 38 -16 62 122 187
536 603 832 837 287 228 669 443 999 564 50 18 98 33 108 34 10 0 86 -41 170
-91z m-2327 -1434 c98 -29 148 -100 148 -210 0 -124 -53 -196 -160 -221 -113
-26 -211 8 -259 90 -21 37 -25 55 -25 127 0 77 3 90 29 131 54 85 155 117 267
83z m4248 -702 c59 -119 158 -417 201 -608 39 -175 56 -329 57 -520 1 -320
-40 -513 -162 -760 -76 -154 -124 -223 -233 -333 -147 -150 -363 -283 -561
-347 -191 -61 -258 -69 -561 -69 -278 -1 -281 0 -435 32 -178 38 -342 84 -514
147 -125 45 -236 92 -236 99 0 2 55 27 123 56 230 99 378 178 605 327 196 128
418 297 557 425 59 54 165 138 175 138 4 0 39 -10 76 -21 195 -61 386 26 481
219 35 70 38 83 38 162 0 82 -2 91 -43 174 l-43 87 24 42 c13 23 56 94 94 157
39 63 105 180 146 260 66 126 97 193 162 348 8 17 16 32 19 32 3 0 16 -21 30
-47z m-4559 -729 c203 -312 372 -521 640 -790 213 -213 240 -238 410 -375 145
-116 271 -208 450 -325 66 -44 120 -86 120 -94 0 -32 -183 -55 -435 -55 -228
0 -298 7 -425 40 -361 94 -640 316 -794 630 -56 114 -82 189 -112 325 -35 153
-34 522 1 715 14 78 20 95 29 95 5 0 57 -75 116 -166z m3883 -123 c77 -39 112
-104 112 -203 -1 -144 -78 -222 -220 -222 -81 0 -134 20 -177 66 -89 95 -61
297 48 354 68 35 174 37 237 5z"/>
<path d="M2685 4153 c-445 -39 -891 -460 -955 -903 -12 -84 -12 -256 0 -345
36 -256 209 -540 428 -702 39 -30 79 -65 88 -78 21 -32 11 -92 -22 -137 -58
-77 -68 -147 -33 -228 19 -45 20 -50 5 -79 -55 -105 -12 -232 100 -301 32 -21
45 -21 504 -21 462 0 472 1 505 21 56 35 103 97 116 154 11 52 8 79 -22 152
-11 28 -10 37 10 80 32 67 25 125 -23 203 -70 115 -64 146 44 225 186 137 331
341 408 576 31 93 41 195 37 355 -4 165 -29 264 -101 410 -54 111 -109 184
-220 297 -178 180 -399 293 -612 313 -77 8 -213 12 -257 8z m176 -907 c43 -8
94 -55 110 -103 16 -48 5 -135 -21 -178 -31 -50 -72 -68 -151 -69 -115 0 -170
50 -177 159 -5 73 19 136 63 168 26 19 98 37 125 32 8 -2 31 -6 51 -9z m152
-1355 l237 -1 0 -40 0 -40 -449 0 -449 0 -6 26 c-4 15 -2 32 4 38 14 14 127
21 295 20 72 -1 237 -2 368 -3z m-45 -271 l283 0 -3 -42 -3 -43 -438 0 c-241
0 -442 2 -446 5 -15 10 -21 59 -9 67 17 10 152 19 253 16 44 -1 207 -2 363 -3z"/>
</g>
</svg>
