<?xml version="1.0" standalone="no"?>
<!DOCTYPE svg PUBLIC "-//W3C//DTD SVG 20010904//EN"
 "http://www.w3.org/TR/2001/REC-SVG-20010904/DTD/svg10.dtd">
<svg version="1.0" xmlns="http://www.w3.org/2000/svg"
 width="560.000000pt" height="560.000000pt" viewBox="0 0 560.000000 560.000000"
 preserveAspectRatio="xMidYMid meet">
<metadata>
Created by potrace 1.11, written by Peter Selinger 2001-2013
</metadata>
<g transform="translate(0.000000,560.000000) scale(0.100000,-0.100000)"
fill="#000000" stroke="none">
<path d="M2535 5589 c-249 -25 -591 -111 -815 -205 -141 -60 -338 -165 -458
-246 -331 -222 -578 -468 -791 -788 -240 -361 -386 -751 -447 -1187 -25 -181
-24 -618 1 -738 2 -11 7 -36 9 -55 3 -19 10 -60 16 -90 6 -30 13 -68 16 -85
30 -168 157 -513 256 -695 23 -41 48 -88 56 -105 15 -29 170 -265 182 -275 3
-3 18 -23 35 -45 16 -21 37 -47 46 -56 9 -9 21 -24 25 -32 26 -45 291 -300
409 -393 111 -87 319 -218 460 -290 312 -158 589 -240 975 -288 101 -13 522
-15 580 -3 14 3 45 8 70 11 195 25 482 96 615 151 17 7 62 25 100 40 192 77
506 262 670 395 429 349 744 800 910 1305 73 224 102 357 130 605 12 106 13
514 2 565 -2 11 -7 47 -11 80 -32 286 -156 673 -302 944 -62 114 -59 110 -145
240 -272 414 -645 741 -1094 961 -284 139 -503 207 -840 261 -143 23 -510 33
-660 18z"/>
</g>
</svg>
